<svg width="93" height="120" viewBox="0 0 93 120" fill="none" xmlns="http://www.w3.org/2000/svg">
<path fill-rule="evenodd" clip-rule="evenodd" d="M49.7151 8.97808C69.5974 8.97808 84.5908 25.0566 83.2039 44.8904H83.2604C83.2379 45.4164 83.2051 46.0629 83.1572 46.8088C83.0167 49.0008 82.7481 52.0233 82.2388 55.347C81.1831 62.2357 79.2188 69.5038 75.9143 73.7638C69.2721 82.3267 58.4451 82.5 53.3422 82.5C51.655 82.5 50.2147 82.3506 48.9153 82.0906C50.3923 79.329 51.6737 76.1185 52.7004 72.4056C53.542 69.362 54.3778 65.8056 55.2086 62.2707C55.8286 59.6323 56.4459 57.0057 57.0606 54.6135C58.2079 50.1487 59.4372 46.0782 60.8967 42.7034C61.8479 42.9586 62.7934 43.1712 63.7086 43.3053C65.8826 43.624 68.4891 43.599 70.9329 42.1732C75.7763 39.3474 76.6498 34.0367 74.6969 30.1753C73.7504 28.3038 72.0903 26.6596 69.8458 25.8828C67.5172 25.0768 64.9845 25.3517 62.6799 26.6013C60.2756 27.9051 58.3183 29.7815 56.7019 31.9221C51.8629 30.3592 45.5762 28.6224 37.9906 28.6224C32.0631 28.6224 26.8158 31.1621 23.2893 33.4023C21.4807 34.5512 20.0078 35.6963 18.9809 36.5588C18.4653 36.9919 18.0565 37.3585 17.7681 37.6254C17.6237 37.7589 17.5091 37.8679 17.4259 37.9481C17.3843 37.9883 17.3505 38.0213 17.3247 38.0466L17.2921 38.0788L17.2803 38.0905L17.2756 38.0952L17.2735 38.0973C17.2735 38.0973 17.2716 38.0992 20.4557 41.279C23.6399 44.4589 23.6382 44.4606 23.6382 44.4606L23.6341 44.4646C23.6398 44.459 23.6528 44.4463 23.6731 44.4267C23.7138 44.3875 23.7834 44.3212 23.8801 44.2317C24.0738 44.0525 24.3747 43.7819 24.7695 43.4503C25.5633 42.7835 26.7136 41.8894 28.1151 40.9991C31.0087 39.161 34.5289 37.6224 37.9906 37.6224C43.4895 37.6224 48.1466 38.7112 52.2829 39.9708C50.6767 43.8671 49.4239 48.1705 48.3438 52.3735C47.6051 55.2482 46.9696 57.968 46.3582 60.5846C45.5945 63.8529 44.8684 66.9604 44.026 70.0069C43.0188 73.6492 41.7742 76.5348 40.4351 78.8167C38.3193 77.8455 36.1001 76.875 34.0851 76.2803C30.8546 75.3271 26.4775 74.8134 22.8401 77.9907C18.7062 81.6016 17.686 86.7094 19.825 90.8962C21.8628 94.885 26.4162 97.2253 31.3551 96.2555C35.1654 95.5073 39.3906 93.5915 43.2205 89.8324C45.9924 90.8068 49.1914 91.5 53.3422 91.5L53.5378 91.5C58.538 91.5024 73.5395 91.5093 83.0257 79.28C87.849 73.0619 90.0536 63.7661 91.1349 56.7103C91.694 53.0619 91.986 49.7671 92.1388 47.3848C92.2154 46.191 92.2574 45.2197 92.2804 44.5397C92.2919 44.1995 92.2986 43.9318 92.3025 43.745C92.3045 43.6517 92.3057 43.5785 92.3065 43.5266L92.3073 43.4648L92.3076 43.4399L92.3076 43.4376C92.3076 43.4376 92.3076 43.4372 92.2824 43.4369C93.1999 19.3173 74.7082 0 50.3429 0C25.4901 0 3.93754 20.0981 2.2039 44.8904L0.111205 74.8173C-1.62244 99.6096 17.1194 119.708 41.9722 119.708C59.9517 119.708 76.204 109.189 84.4747 93.9839H74.2206C67.1383 104.047 55.4178 110.73 42.6 110.73C22.7177 110.73 7.72429 94.6511 9.11121 74.8173L11.2039 44.8904C12.5908 25.0566 29.8329 8.97808 49.7151 8.97808ZM31.5379 84.9124C32.2905 85.1345 33.0662 85.4218 33.8918 85.7632C32.3747 86.669 30.9098 87.1711 29.621 87.4242C28.545 87.6354 28.0128 87.1407 27.8396 86.8017C27.7489 86.6241 27.7124 86.4215 27.7671 86.1746C27.8202 85.9346 28.0147 85.4207 28.7609 84.7689L28.7698 84.7609C28.8794 84.6623 29.3269 84.2599 31.5379 84.9124Z" fill="#1C1917"/>
</svg>
